<?xml version="1.0" encoding="utf-8"?>
<!-- Generator: Adobe Illustrator 25.2.1, SVG Export Plug-In . SVG Version: 6.00 Build 0)  -->
<svg version="1.1" id="Layer_1" xmlns="http://www.w3.org/2000/svg" xmlns:xlink="http://www.w3.org/1999/xlink" x="0px" y="0px"
	 viewBox="0 0 2048 2048" style="enable-background:new 0 0 2048 2048;" xml:space="preserve">
<style type="text/css">
	.st0{fill:none;}
	.st1{fill:#FFFFFF;}
</style>
<g>
	<path class="st0" d="M1662.1,876.9c0.8,3.8,1.3,7.7,1.6,11.7C1663.4,884.6,1662.9,880.7,1662.1,876.9z"/>
	<path class="st0" d="M1663.6,905.3c-1.8,18.4-8.8,34.9-21,49.5C1654.8,940.2,1661.8,923.7,1663.6,905.3z"/>
	<polygon class="st1" points="1317,960 1088,731 555.3,1263.7 1013.3,1263.7 	"/>
	<path d="M1872,176c-14.7-14.7-32-26.3-52-35s-41-13-63-13c-44,0-82,16-114,48l-331,330l-94-94c-18.7-18.7-40.7-28-66-28
		c-14,0-27.2,3.3-39.5,10c-12.3,6.7-24,15-35,25s-21.5,20.5-31.5,31.5s-19.3,20.8-28,29.5l550,550l68-68c2.3-2.3,4.5-4.7,6.6-7.2
		c12.2-14.6,19.2-31.1,21-49.5c0.3-3.1,0.4-6.2,0.4-9.3c0-2.5-0.1-5-0.3-7.4c-0.3-4-0.8-7.9-1.6-11.7c-1.2-6.1-3.1-11.9-5.6-17.4
		c-1.9-4.1-4.1-8.1-6.5-12c-3.3-5.2-7.2-10.2-11.6-14.9c-1.1-1.2-2.2-2.4-3.4-3.5l-93-93l330-331c32-32,48-70,48-114
		c0-22-4.3-43-13-63S1886.7,190.7,1872,176z"/>
	<path d="M2025,177c-15.3-35.3-36-66-62-92s-56.7-46.7-92-62c-35.3-15.3-73-23-113-23c-38.7,0-75.8,7.3-111.5,22s-67.2,35.7-94.5,63
		l-240,240c-21.3-22-45.5-39-72.5-51s-56.2-18-87.5-18c-30.7,0-59.3,5.8-86,17.5c-26.7,11.7-50.7,28.2-72,49.5L837,480l161,160
		l-623.7,623.7h181L1088,731l229,229l-303.7,303.7h181L1408,1050l160,161l157-157c21.3-21.3,37.8-45.3,49.5-72s17.5-55.3,17.5-86
		c0-31.3-6-60.5-18-87.5s-29-51.2-51-72.5l240-240c27.3-27.3,48.3-58.8,63-94.5c14.7-35.7,22-72.8,22-111.5
		C2048,250,2040.3,212.3,2025,177z M1872,405l-330,331l93,93c1.2,1.2,2.3,2.3,3.4,3.5c4.4,4.8,8.2,9.8,11.6,14.9
		c2.5,3.9,4.7,7.9,6.5,12c2.5,5.5,4.4,11.3,5.6,17.4c0.8,3.8,1.3,7.7,1.6,11.7c0.2,2.4,0.3,4.9,0.3,7.4c0,3.2-0.1,6.3-0.4,9.3
		c-1.8,18.4-8.8,34.9-21,49.5c-2,2.4-4.2,4.8-6.6,7.2l-68,68l-550-550c8.7-8.7,18-18.5,28-29.5s20.5-21.5,31.5-31.5s22.7-18.3,35-25
		c12.3-6.7,25.5-10,39.5-10c25.3,0,47.3,9.3,66,28l94,94l331-330c32-32,70-48,114-48c22,0,43,4.3,63,13s37.3,20.3,52,35
		s26.3,32,35,52s13,41,13,63C1920,335,1904,373,1872,405z"/>
	<path d="M1638.4,832.5c4.4,4.8,8.2,9.8,11.6,14.9C1646.6,842.3,1642.8,837.3,1638.4,832.5z"/>
	<path d="M300,1591c-9.3,26.7-21.3,51.5-36,74.5s-31.8,45-51.5,66s-40.8,43.2-63.5,66.5c-14,14-21,31-21,51c0,19.3,7,36,21,50
		s30.7,21,50,21c20,0,37-7,51-21c23.3-22.7,45.7-43.8,67-63.5c21.3-19.7,43.3-36.8,66-51.5c22.7-14.7,47.3-26.7,74-36
		c26.7-9.3,57-15.7,91-19l465.3-465.3h-458L319,1500C315.7,1534,309.3,1564.3,300,1591z"/>
	<path d="M548,1729c-34,3.3-64.3,9.7-91,19c-26.7,9.3-51.3,21.3-74,36c-22.7,14.7-44.7,31.8-66,51.5c-21.3,19.7-43.7,40.8-67,63.5
		c-14,14-31,21-51,21c-19.3,0-36-7-50-21s-21-30.7-21-50c0-20,7-37,21-51c22.7-23.3,43.8-45.5,63.5-66.5s36.8-43,51.5-66
		s26.7-47.8,36-74.5c9.3-26.7,15.7-57,19-91l236.3-236.3h-181L193,1445l-1,26c-1.3,34.7-7,64-17,88s-22.2,45.2-36.5,63.5
		s-29.5,35-45.5,50s-31,30.7-45,47s-25.5,34.7-34.5,55S0,1819.3,0,1848c0,27.3,5.3,53.2,16,77.5c10.7,24.3,25,45.5,43,63.5
		s39.2,32.3,63.5,43s50.2,16,77.5,16c28.7,0,53-4.5,73-13.5s38.3-20.5,55-34.5c16.7-14,32.5-29,47.5-45s31.7-31.2,50-45.5
		c18.3-14.3,39.7-26.5,64-36.5s53.5-15.7,87.5-17l26-1l591.3-591.3h-181L548,1729z"/>
</g>
</svg>
