<svg id="Group_19153" data-name="Group 19153" xmlns="http://www.w3.org/2000/svg" width="100" height="42.22" viewBox="0 0 100 42.22">
  <g id="Group_8815" data-name="Group 8815">
    <g id="Group_8814" data-name="Group 8814">
      <path id="Path_10143" data-name="Path 10143" d="M4397.1,1049.532V1041.4h3.007l1.338,5.073,1.342-5.073h3v8.136h-2.233v-2.487l.033-1.264.122-1.469h-.018l-1.384,5.22h-1.729l-1.379-5.22h-.024l.105,1.2.051,1.268v2.757Z" transform="translate(-4385.972 -1024.385)" fill="#fff"/>
      <path id="Path_10144" data-name="Path 10144" d="M4403.6,1049.537l2.749-8.141h2.559l2.741,8.141h-2.5l-.3-1.074h-2.5l-.29,1.074Zm4-5.687-.775,2.916h1.589Z" transform="translate(-4381.427 -1024.385)" fill="#fff"/>
      <path id="Path_10145" data-name="Path 10145" d="M4413.43,1046.695v2.816h-2.8v-8.082h4.026c2.845,0,3.781.732,3.781,2.3a1.882,1.882,0,0,1-1.431,1.978c.9.315,1.444.513,1.444,2.142,0,1.056-.038,1.415.295,1.415v.246h-2.834a5.119,5.119,0,0,1-.138-1.414c0-1.056-.2-1.4-1.493-1.4Zm0-1.773h1.1c.863,0,1.325-.2,1.325-.764s-.474-.841-1.127-.841h-1.3Z" transform="translate(-4376.719 -1024.363)" fill="#fff"/>
      <path id="Path_10146" data-name="Path 10146" d="M4425.105,1041.421h2.752v4.872c0,.8.168,1.493,1.3,1.493.989,0,1.282-.61,1.282-1.493v-4.872h2.753v4.6c0,2.612-1.25,3.755-4.035,3.755-2.6,0-4.052-.963-4.052-3.769Z" transform="translate(-4367.035 -1024.366)" fill="#fff"/>
      <path id="Path_10147" data-name="Path 10147" d="M4432.65,1049.519v-8.1h7.9v1.889H4434.7v1.158h5.125v1.891H4434.7v1.27h6.043v1.891Z" transform="translate(-4361.985 -1024.369)" fill="#fff"/>
      <path id="Path_10148" data-name="Path 10148" d="M4443.673,1043.879a.679.679,0,0,0-.414-.522,1.793,1.793,0,0,0-.747-.14c-.638,0-.917.162-.917.436,0,1.151,5.059.438,5.059,3.229,0,1.778-1.7,2.639-4.118,2.639-2.32,0-3.838-1.183-3.9-2.565h2.762a.892.892,0,0,0,.475.607,1.787,1.787,0,0,0,.824.192c.718,0,1.2-.2,1.2-.564,0-1.163-5.063-.362-5.063-3.291,0-1.629,1.617-2.45,3.813-2.45,2.445,0,3.561,1.087,3.766,2.429Z" transform="translate(-4357.785 -1024.35)" fill="#fff"/>
      <path id="Path_10149" data-name="Path 10149" d="M4390.313,1043.769v.414h9.087v-.414Z" transform="translate(-4390.313 -1022.866)" fill="#fff" fill-rule="evenodd"/>
      <path id="Path_10150" data-name="Path 10150" d="M4427.284,1031.229h.527v2.29a18.829,18.829,0,0,1,0,37.64v2.29h-.527v-2.29a18.828,18.828,0,0,1,0-37.64v-2.29Zm.527,3.1v2.28h-.527v-2.28a18.022,18.022,0,0,0,0,36.026v-2.283h.527v2.283a18.022,18.022,0,0,0,0-36.026Z" transform="translate(-4377.545 -1031.229)" fill="#fff" fill-rule="evenodd"/>
      <path id="Path_10151" data-name="Path 10151" d="M4444.773,1043.769v.414h9.086v-.414Z" transform="translate(-4353.859 -1022.866)" fill="#fff" fill-rule="evenodd"/>
      <path id="Path_10152" data-name="Path 10152" d="M4432.934,1057.925l-1.236,1.237h3.818v-3.821l-1.231,1.236-5.881-5.888a6.991,6.991,0,1,0-1.36,1.343l5.89,5.893Zm-7.877-7.887a4.1,4.1,0,1,1,1.95-3.488,4.045,4.045,0,0,1-.6,2.127l-.2-.19-2.62-2.61-1.35,1.349,2.616,2.609Z" transform="translate(-4373 -1025.4)" fill="#fff" fill-rule="evenodd"/>
    </g>
  </g>
</svg>
