<svg xmlns="http://www.w3.org/2000/svg" width="150" height="54.001" viewBox="0 0 150 54.001">
  <g id="Group_19154" data-name="Group 19154" transform="translate(22726 24081)">
    <path id="Path_26768" data-name="Path 26768" d="M26.784-2.772c0-3.629-5.674-5.674-8.438-6.826C13.219-9.77,7.373-9.338,7.373-16.25c0-5.414,2.88-6.97,7.891-6.97,5.3,0,7.834,1.728,7.834,7.286a9.7,9.7,0,0,1-.72,3.715.684.684,0,0,0-.086.346c0,.518,3.427,2.3,3.715,2.3a.5.5,0,0,0,.346-.115,8.208,8.208,0,0,0,2.678-6.624c0-8.064-6.48-11.088-13.651-11.088-7.2,0-13.939,3-13.939,11.174C1.44-6.66,10.714-5.45,18.23-5.45c.95.518,7.574,4.32,7.949,4.32C26.784-1.13,26.784-2.4,26.784-2.772ZM56.362-10.49V-26.5a.544.544,0,0,0-.576-.576H51.12a.544.544,0,0,0-.576.576v16.79H37.469V-26.5a.544.544,0,0,0-.576-.576H32.2a.544.544,0,0,0-.576.576v16.272c0,4.234,2.074,4.694,5.789,4.694h12.96C54.23-5.537,56.362-6.113,56.362-10.49ZM59.7-6.026a.522.522,0,0,0,.576.547H73.411c4.291,0,11.722-.662,11.722-6.422,0-3.082-2.794-4.435-5.472-4.723,2.189-.518,3.168-2.765,3.168-4.838,0-4.838-5.7-5.789-9.475-5.789H59.789a.508.508,0,0,0-.547.576c0,3.226,2.765,3.6,5.328,3.6h8.784c1.469,0,3.542.4,3.542,2.275,0,1.958-2.016,2.275-3.542,2.275H60.278a.544.544,0,0,0-.576.576Zm5.962-8.294H73.44c1.7,0,5.76,0,5.76,2.477,0,2.246-4.2,2.506-5.818,2.506H65.664ZM88.07-5.45l4.723-.029a.544.544,0,0,0,.576-.576L93.312-26.5a.544.544,0,0,0-.576-.576H88.013a.544.544,0,0,0-.576.576l.058,20.477A.544.544,0,0,0,88.07-5.45Zm31.738-.634V-9.108a.544.544,0,0,0-.576-.576h-2.39l-4.781.029h-2.39c-4.954,0-7.776-1.411-7.776-6.8,0-5.5,2.909-6.422,7.776-6.422h2.39l4.781-.029h2.39a.544.544,0,0,0,.576-.576V-26.5a.544.544,0,0,0-.576-.576h-2.39l-4.781.029h-2.39c-7.085,0-13.709,2.707-13.709,10.829,0,8.179,6.6,10.742,13.709,10.742h2.39l4.781-.029h2.39A.544.544,0,0,0,119.808-6.084Z" transform="translate(-22711.439 -24037.92)" fill="#fff"/>
    <path id="Union_8" data-name="Union 8" d="M0,13.2V0H13.2V4.4H4.4v8.8Z" transform="translate(-22726 -24081)" fill="#fff"/>
    <path id="Union_9" data-name="Union 9" d="M0,0V13.2H13.2V8.8H4.4V0Z" transform="translate(-22576 -24067.801) rotate(180)" fill="#fff"/>
    <path id="Union_10" data-name="Union 10" d="M0,0V13.2H13.2V8.8H4.4V0Z" transform="translate(-22726 -24040.199)" fill="#fff"/>
    <path id="Union_11" data-name="Union 11" d="M0,13.2V0H13.2V4.4H4.4v8.8Z" transform="translate(-22576 -24027) rotate(180)" fill="#fff"/>
  </g>
</svg>
