<svg id="Group_19059" data-name="Group 19059" xmlns="http://www.w3.org/2000/svg" width="24" height="24" viewBox="0 0 24 24">
  <path id="Path_14551" data-name="Path 14551" d="M6.2,17.48a11.253,11.253,0,0,1,2.71-1.45,8.7,8.7,0,0,1,3.1-.53,8.97,8.97,0,0,1,3.1.53,11.816,11.816,0,0,1,2.71,1.45,7.946,7.946,0,0,0,1.59-2.42,7.664,7.664,0,0,0,.6-3.06,7.7,7.7,0,0,0-2.34-5.66A7.716,7.716,0,0,0,12.01,4,7.716,7.716,0,0,0,6.35,6.34,7.716,7.716,0,0,0,4.01,12a7.664,7.664,0,0,0,.6,3.06A7.946,7.946,0,0,0,6.2,17.48ZM12,12.5a2.971,2.971,0,0,1-3-3,2.971,2.971,0,0,1,3-3,2.971,2.971,0,0,1,3,3,2.971,2.971,0,0,1-3,3ZM12,21a8.862,8.862,0,0,1-3.53-.7,8.926,8.926,0,0,1-4.78-4.78,8.828,8.828,0,0,1-.7-3.53,8.862,8.862,0,0,1,.7-3.53A8.926,8.926,0,0,1,8.47,3.68,8.828,8.828,0,0,1,12,2.98a8.862,8.862,0,0,1,3.53.7A9.1,9.1,0,0,1,18.39,5.6a8.992,8.992,0,0,1,1.92,2.86,8.828,8.828,0,0,1,.7,3.53,8.862,8.862,0,0,1-.7,3.53,9.1,9.1,0,0,1-1.92,2.86,8.992,8.992,0,0,1-2.86,1.92A8.828,8.828,0,0,1,12,21Z" fill="#fff"/>
  <rect id="Rectangle_13103" data-name="Rectangle 13103" width="24" height="24" fill="none"/>
</svg>
